%TF.GenerationSoftware,KiCad,Pcbnew,(6.0.2)*%
%TF.CreationDate,2022-10-21T03:28:24+03:00*%
%TF.ProjectId,Shield1,53686965-6c64-4312-9e6b-696361645f70,rev?*%
%TF.SameCoordinates,Original*%
%TF.FileFunction,Copper,L2,Inr*%
%TF.FilePolarity,Positive*%
%FSLAX46Y46*%
G04 Gerber Fmt 4.6, Leading zero omitted, Abs format (unit mm)*
G04 Created by KiCad (PCBNEW (6.0.2)) date 2022-10-21 03:28:24*
%MOMM*%
%LPD*%
G01*
G04 APERTURE LIST*
%TA.AperFunction,ViaPad*%
%ADD10C,0.400000*%
%TD*%
%TA.AperFunction,ViaPad*%
%ADD11C,0.500000*%
%TD*%
G04 APERTURE END LIST*
D10*
%TO.N,GND1*%
X97250000Y-24200000D03*
X97250000Y-23600000D03*
X97250000Y-23600000D03*
X97250000Y-23000000D03*
%TO.N,GND2*%
X102750000Y-23550000D03*
X102750000Y-22950000D03*
X102750000Y-24150000D03*
D11*
%TO.N,VBUS1*%
X98800000Y-22000000D03*
X98800000Y-24800000D03*
X98882155Y-25282155D03*
%TO.N,VBUS2*%
X101200000Y-25200000D03*
X101200000Y-24600000D03*
X101225499Y-24000000D03*
X101225499Y-23400000D03*
D10*
%TO.N,D-*%
X99800000Y-23100000D03*
%TO.N,D+*%
X100200000Y-23500000D03*
%TO.N,RX*%
X105500000Y-28800000D03*
X100700000Y-24300000D03*
X100900000Y-28700000D03*
%TO.N,TX*%
X94500000Y-28700000D03*
X99400000Y-24000000D03*
X99100000Y-28600000D03*
%TD*%
%TA.AperFunction,Conductor*%
%TO.N,GND1*%
G36*
X99759187Y-20218907D02*
G01*
X99795151Y-20268407D01*
X99799996Y-20299001D01*
X99799961Y-22609961D01*
X99781053Y-22668152D01*
X99731552Y-22704115D01*
X99716448Y-22707741D01*
X99682391Y-22713135D01*
X99682390Y-22713135D01*
X99674696Y-22714354D01*
X99667757Y-22717890D01*
X99667756Y-22717890D01*
X99568597Y-22768414D01*
X99568595Y-22768415D01*
X99561658Y-22771950D01*
X99471950Y-22861658D01*
X99468415Y-22868595D01*
X99468414Y-22868597D01*
X99417890Y-22967756D01*
X99414354Y-22974696D01*
X99394508Y-23100000D01*
X99395727Y-23107697D01*
X99405904Y-23171950D01*
X99414354Y-23225304D01*
X99417890Y-23232243D01*
X99417890Y-23232244D01*
X99442711Y-23280957D01*
X99471950Y-23338342D01*
X99561658Y-23428050D01*
X99568597Y-23431586D01*
X99568742Y-23431691D01*
X99604706Y-23481191D01*
X99604707Y-23542376D01*
X99568743Y-23591876D01*
X99510553Y-23610784D01*
X99495069Y-23609565D01*
X99400000Y-23594508D01*
X99392303Y-23595727D01*
X99282391Y-23613135D01*
X99282390Y-23613135D01*
X99274696Y-23614354D01*
X99267757Y-23617890D01*
X99267756Y-23617890D01*
X99168597Y-23668414D01*
X99168595Y-23668415D01*
X99161658Y-23671950D01*
X99071950Y-23761658D01*
X99014354Y-23874696D01*
X99013135Y-23882390D01*
X99013135Y-23882391D01*
X99005519Y-23930478D01*
X98994508Y-24000000D01*
X99014354Y-24125304D01*
X99017890Y-24132243D01*
X99017890Y-24132244D01*
X99070795Y-24236075D01*
X99080366Y-24296507D01*
X99052589Y-24351023D01*
X98998072Y-24378801D01*
X98954219Y-24375869D01*
X98867273Y-24349866D01*
X98790644Y-24349398D01*
X98745282Y-24349121D01*
X98738231Y-24349078D01*
X98731454Y-24351015D01*
X98731453Y-24351015D01*
X98620935Y-24382601D01*
X98620933Y-24382602D01*
X98614155Y-24384539D01*
X98505019Y-24453399D01*
X98419596Y-24550122D01*
X98364754Y-24666932D01*
X98344901Y-24794440D01*
X98345816Y-24801437D01*
X98345816Y-24801438D01*
X98346717Y-24808327D01*
X98361633Y-24922394D01*
X98364471Y-24928845D01*
X98364472Y-24928847D01*
X98409685Y-25031601D01*
X98413605Y-25040510D01*
X98427513Y-25057056D01*
X98428512Y-25058244D01*
X98451482Y-25114954D01*
X98447831Y-25147122D01*
X98446909Y-25149087D01*
X98427056Y-25276595D01*
X98427971Y-25283592D01*
X98427971Y-25283593D01*
X98429237Y-25293275D01*
X98443788Y-25404549D01*
X98446626Y-25411000D01*
X98446627Y-25411002D01*
X98453613Y-25426879D01*
X98495760Y-25522665D01*
X98537277Y-25572056D01*
X98574255Y-25616047D01*
X98574258Y-25616049D01*
X98578794Y-25621446D01*
X98686215Y-25692951D01*
X98692943Y-25695053D01*
X98692945Y-25695054D01*
X98747801Y-25712192D01*
X98809388Y-25731433D01*
X98873899Y-25732615D01*
X98931357Y-25733669D01*
X98931359Y-25733669D01*
X98938410Y-25733798D01*
X98945213Y-25731943D01*
X98945215Y-25731943D01*
X98986983Y-25720555D01*
X99062910Y-25699855D01*
X99172879Y-25632334D01*
X99259477Y-25536662D01*
X99315743Y-25420530D01*
X99337152Y-25293275D01*
X99337288Y-25282155D01*
X99318994Y-25154414D01*
X99265583Y-25036943D01*
X99254668Y-25024275D01*
X99231007Y-24967853D01*
X99234339Y-24938501D01*
X99233588Y-24938375D01*
X99254363Y-24814891D01*
X99254363Y-24814886D01*
X99254997Y-24811120D01*
X99255133Y-24800000D01*
X99236839Y-24672259D01*
X99183428Y-24554788D01*
X99175059Y-24545075D01*
X99151400Y-24488649D01*
X99165425Y-24429093D01*
X99211778Y-24389155D01*
X99271798Y-24384169D01*
X99274696Y-24385646D01*
X99282395Y-24386865D01*
X99282397Y-24386866D01*
X99392303Y-24404273D01*
X99400000Y-24405492D01*
X99407697Y-24404273D01*
X99517609Y-24386865D01*
X99517610Y-24386865D01*
X99525304Y-24385646D01*
X99544493Y-24375869D01*
X99581823Y-24356848D01*
X99638342Y-24328050D01*
X99643191Y-24323201D01*
X99700935Y-24304440D01*
X99759125Y-24323349D01*
X99795088Y-24372849D01*
X99799933Y-24403442D01*
X99799926Y-24829988D01*
X99799815Y-32053229D01*
X99799806Y-32602487D01*
X99780898Y-32660677D01*
X99731397Y-32696640D01*
X99700791Y-32701485D01*
X98276333Y-32701270D01*
X95024615Y-32700780D01*
X94966427Y-32681864D01*
X94954626Y-32671784D01*
X94228996Y-31946153D01*
X94201219Y-31891636D01*
X94200000Y-31876149D01*
X94200000Y-29158188D01*
X94218907Y-29099997D01*
X94268407Y-29064033D01*
X94329593Y-29064033D01*
X94343944Y-29069978D01*
X94367752Y-29082109D01*
X94367758Y-29082111D01*
X94374696Y-29085646D01*
X94382390Y-29086865D01*
X94382391Y-29086865D01*
X94492303Y-29104273D01*
X94500000Y-29105492D01*
X94507697Y-29104273D01*
X94617609Y-29086865D01*
X94617610Y-29086865D01*
X94625304Y-29085646D01*
X94667722Y-29064033D01*
X94731403Y-29031586D01*
X94731405Y-29031585D01*
X94738342Y-29028050D01*
X94828050Y-28938342D01*
X94885646Y-28825304D01*
X94905492Y-28700000D01*
X94889654Y-28600000D01*
X98694508Y-28600000D01*
X98714354Y-28725304D01*
X98717890Y-28732243D01*
X98717890Y-28732244D01*
X98765307Y-28825304D01*
X98771950Y-28838342D01*
X98861658Y-28928050D01*
X98868595Y-28931585D01*
X98868597Y-28931586D01*
X98892663Y-28943848D01*
X98974696Y-28985646D01*
X98982390Y-28986865D01*
X98982391Y-28986865D01*
X99092303Y-29004273D01*
X99100000Y-29005492D01*
X99107697Y-29004273D01*
X99217609Y-28986865D01*
X99217610Y-28986865D01*
X99225304Y-28985646D01*
X99307337Y-28943848D01*
X99331403Y-28931586D01*
X99331405Y-28931585D01*
X99338342Y-28928050D01*
X99428050Y-28838342D01*
X99434694Y-28825304D01*
X99482110Y-28732244D01*
X99482110Y-28732243D01*
X99485646Y-28725304D01*
X99505492Y-28600000D01*
X99485646Y-28474696D01*
X99428050Y-28361658D01*
X99338342Y-28271950D01*
X99331405Y-28268415D01*
X99331403Y-28268414D01*
X99232244Y-28217890D01*
X99232243Y-28217890D01*
X99225304Y-28214354D01*
X99217610Y-28213135D01*
X99217609Y-28213135D01*
X99107697Y-28195727D01*
X99100000Y-28194508D01*
X99092303Y-28195727D01*
X98982391Y-28213135D01*
X98982390Y-28213135D01*
X98974696Y-28214354D01*
X98967757Y-28217890D01*
X98967756Y-28217890D01*
X98868597Y-28268414D01*
X98868595Y-28268415D01*
X98861658Y-28271950D01*
X98771950Y-28361658D01*
X98714354Y-28474696D01*
X98694508Y-28600000D01*
X94889654Y-28600000D01*
X94885646Y-28574696D01*
X94838614Y-28482391D01*
X94831586Y-28468597D01*
X94831585Y-28468595D01*
X94828050Y-28461658D01*
X94738342Y-28371950D01*
X94731405Y-28368415D01*
X94731403Y-28368414D01*
X94632244Y-28317890D01*
X94632243Y-28317890D01*
X94625304Y-28314354D01*
X94617610Y-28313135D01*
X94617609Y-28313135D01*
X94507697Y-28295727D01*
X94500000Y-28294508D01*
X94492303Y-28295727D01*
X94382391Y-28313135D01*
X94382390Y-28313135D01*
X94374696Y-28314354D01*
X94367758Y-28317889D01*
X94367752Y-28317891D01*
X94343944Y-28330022D01*
X94283512Y-28339593D01*
X94228996Y-28311815D01*
X94201219Y-28257298D01*
X94200000Y-28241812D01*
X94200000Y-24742990D01*
X94218907Y-24684799D01*
X94268407Y-24648835D01*
X94329593Y-24648835D01*
X94367129Y-24671167D01*
X94370090Y-24674543D01*
X94373657Y-24677355D01*
X94539795Y-24808327D01*
X94539798Y-24808329D01*
X94543360Y-24811137D01*
X94547378Y-24813251D01*
X94734609Y-24911759D01*
X94734612Y-24911760D01*
X94738620Y-24913869D01*
X94786857Y-24928847D01*
X94944994Y-24977950D01*
X94944997Y-24977951D01*
X94949333Y-24979297D01*
X94953843Y-24979831D01*
X94953844Y-24979831D01*
X94990936Y-24984221D01*
X95128476Y-25000500D01*
X95255970Y-25000500D01*
X95419711Y-24985454D01*
X95446319Y-24977950D01*
X95627689Y-24926799D01*
X95627690Y-24926798D01*
X95632064Y-24925565D01*
X95636136Y-24923557D01*
X95636141Y-24923555D01*
X95825875Y-24829988D01*
X95825874Y-24829988D01*
X95829947Y-24827980D01*
X96006733Y-24695967D01*
X96050301Y-24648835D01*
X96153423Y-24537279D01*
X96153424Y-24537278D01*
X96156501Y-24533949D01*
X96205035Y-24457028D01*
X96271815Y-24351187D01*
X96274236Y-24347350D01*
X96355994Y-24142421D01*
X96399038Y-23926024D01*
X96401926Y-23705406D01*
X96401157Y-23700928D01*
X96365332Y-23492435D01*
X96365330Y-23492429D01*
X96364562Y-23487957D01*
X96309366Y-23338342D01*
X96289769Y-23285220D01*
X96289768Y-23285217D01*
X96288196Y-23280957D01*
X96175386Y-23091341D01*
X96153208Y-23066051D01*
X96032902Y-22928869D01*
X96029910Y-22925457D01*
X95947087Y-22860165D01*
X95860205Y-22791673D01*
X95860202Y-22791671D01*
X95856640Y-22788863D01*
X95824494Y-22771950D01*
X95665391Y-22688241D01*
X95665388Y-22688240D01*
X95661380Y-22686131D01*
X95578126Y-22660280D01*
X95455006Y-22622050D01*
X95455003Y-22622049D01*
X95450667Y-22620703D01*
X95446157Y-22620169D01*
X95446156Y-22620169D01*
X95398647Y-22614546D01*
X95271524Y-22599500D01*
X95144030Y-22599500D01*
X94980289Y-22614546D01*
X94767936Y-22674435D01*
X94763864Y-22676443D01*
X94763859Y-22676445D01*
X94599753Y-22757373D01*
X94570053Y-22772020D01*
X94393267Y-22904033D01*
X94371696Y-22927368D01*
X94318314Y-22957263D01*
X94257552Y-22950071D01*
X94212623Y-22908538D01*
X94200000Y-22860165D01*
X94200000Y-21994440D01*
X98344901Y-21994440D01*
X98345816Y-22001437D01*
X98345816Y-22001438D01*
X98347082Y-22011120D01*
X98361633Y-22122394D01*
X98364471Y-22128845D01*
X98364472Y-22128847D01*
X98371458Y-22144724D01*
X98413605Y-22240510D01*
X98455122Y-22289900D01*
X98492100Y-22333892D01*
X98492103Y-22333894D01*
X98496639Y-22339291D01*
X98604060Y-22410796D01*
X98610788Y-22412898D01*
X98610790Y-22412899D01*
X98665646Y-22430037D01*
X98727233Y-22449278D01*
X98791744Y-22450460D01*
X98849202Y-22451514D01*
X98849204Y-22451514D01*
X98856255Y-22451643D01*
X98863058Y-22449788D01*
X98863060Y-22449788D01*
X98904828Y-22438400D01*
X98980755Y-22417700D01*
X99090724Y-22350179D01*
X99177322Y-22254507D01*
X99233588Y-22138375D01*
X99254997Y-22011120D01*
X99255133Y-22000000D01*
X99236839Y-21872259D01*
X99183428Y-21754788D01*
X99099193Y-21657028D01*
X99093276Y-21653193D01*
X99093274Y-21653191D01*
X98996824Y-21590677D01*
X98990906Y-21586841D01*
X98984150Y-21584821D01*
X98984149Y-21584820D01*
X98941335Y-21572016D01*
X98867273Y-21549866D01*
X98790644Y-21549398D01*
X98745282Y-21549121D01*
X98738231Y-21549078D01*
X98731454Y-21551015D01*
X98731453Y-21551015D01*
X98620935Y-21582601D01*
X98620933Y-21582602D01*
X98614155Y-21584539D01*
X98505019Y-21653399D01*
X98419596Y-21750122D01*
X98364754Y-21866932D01*
X98344901Y-21994440D01*
X94200000Y-21994440D01*
X94200000Y-21105704D01*
X94218907Y-21047513D01*
X94268407Y-21011549D01*
X94329593Y-21011549D01*
X94364534Y-21031500D01*
X94439029Y-21097291D01*
X94561025Y-21154568D01*
X94663346Y-21170500D01*
X94733782Y-21170500D01*
X94737273Y-21170000D01*
X94737274Y-21170000D01*
X94766992Y-21165744D01*
X94833412Y-21156232D01*
X94894755Y-21128341D01*
X94949676Y-21103370D01*
X94956098Y-21100450D01*
X95058197Y-21012475D01*
X95131501Y-20899382D01*
X95133521Y-20892627D01*
X95133523Y-20892623D01*
X95168095Y-20777020D01*
X95170117Y-20770259D01*
X95170940Y-20635489D01*
X95133905Y-20505905D01*
X95061988Y-20391924D01*
X95056706Y-20387259D01*
X95056700Y-20387252D01*
X95040792Y-20373203D01*
X95009692Y-20320511D01*
X95015504Y-20259602D01*
X95056007Y-20213742D01*
X95106327Y-20200000D01*
X99700996Y-20200000D01*
X99759187Y-20218907D01*
G37*
%TD.AperFunction*%
%TD*%
%TA.AperFunction,Conductor*%
%TO.N,GND2*%
G36*
X104951068Y-20218907D02*
G01*
X104987032Y-20268407D01*
X104987032Y-20329593D01*
X104957499Y-20374000D01*
X104947147Y-20382919D01*
X104947143Y-20382924D01*
X104941803Y-20387525D01*
X104868499Y-20500618D01*
X104866479Y-20507373D01*
X104866477Y-20507377D01*
X104833502Y-20617641D01*
X104829883Y-20629741D01*
X104829060Y-20764511D01*
X104866095Y-20894095D01*
X104938012Y-21008076D01*
X105039029Y-21097291D01*
X105161025Y-21154568D01*
X105263346Y-21170500D01*
X105333782Y-21170500D01*
X105337273Y-21170000D01*
X105337274Y-21170000D01*
X105366992Y-21165744D01*
X105433412Y-21156232D01*
X105494755Y-21128341D01*
X105549676Y-21103370D01*
X105556098Y-21100450D01*
X105561439Y-21095848D01*
X105561445Y-21095844D01*
X105636376Y-21031278D01*
X105692801Y-21007616D01*
X105752358Y-21021639D01*
X105792298Y-21067991D01*
X105800000Y-21106276D01*
X105800000Y-22757010D01*
X105781093Y-22815201D01*
X105731593Y-22851165D01*
X105670407Y-22851165D01*
X105632871Y-22828833D01*
X105629910Y-22825457D01*
X105616900Y-22815201D01*
X105460205Y-22691673D01*
X105460202Y-22691671D01*
X105456640Y-22688863D01*
X105424627Y-22672020D01*
X105265391Y-22588241D01*
X105265388Y-22588240D01*
X105261380Y-22586131D01*
X105178126Y-22560280D01*
X105055006Y-22522050D01*
X105055003Y-22522049D01*
X105050667Y-22520703D01*
X105046157Y-22520169D01*
X105046156Y-22520169D01*
X104998647Y-22514546D01*
X104871524Y-22499500D01*
X104744030Y-22499500D01*
X104580289Y-22514546D01*
X104367936Y-22574435D01*
X104363864Y-22576443D01*
X104363859Y-22576445D01*
X104199753Y-22657373D01*
X104170053Y-22672020D01*
X103993267Y-22804033D01*
X103990186Y-22807366D01*
X103859189Y-22949078D01*
X103843499Y-22966051D01*
X103841081Y-22969884D01*
X103841079Y-22969886D01*
X103786097Y-23057028D01*
X103725764Y-23152650D01*
X103644006Y-23357579D01*
X103600962Y-23573976D01*
X103599539Y-23682653D01*
X103598573Y-23756507D01*
X103598074Y-23794594D01*
X103598843Y-23799067D01*
X103598843Y-23799072D01*
X103634668Y-24007565D01*
X103634670Y-24007571D01*
X103635438Y-24012043D01*
X103653193Y-24060170D01*
X103695444Y-24174696D01*
X103711804Y-24219043D01*
X103824614Y-24408659D01*
X103827609Y-24412074D01*
X103827611Y-24412077D01*
X103886514Y-24479243D01*
X103970090Y-24574543D01*
X103973652Y-24577351D01*
X104139795Y-24708327D01*
X104139798Y-24708329D01*
X104143360Y-24711137D01*
X104147378Y-24713251D01*
X104334609Y-24811759D01*
X104334612Y-24811760D01*
X104338620Y-24813869D01*
X104403639Y-24834058D01*
X104544994Y-24877950D01*
X104544997Y-24877951D01*
X104549333Y-24879297D01*
X104553843Y-24879831D01*
X104553844Y-24879831D01*
X104590936Y-24884221D01*
X104728476Y-24900500D01*
X104855970Y-24900500D01*
X105019711Y-24885454D01*
X105153444Y-24847738D01*
X105227689Y-24826799D01*
X105227690Y-24826798D01*
X105232064Y-24825565D01*
X105236136Y-24823557D01*
X105236141Y-24823555D01*
X105425875Y-24729988D01*
X105425874Y-24729988D01*
X105429947Y-24727980D01*
X105606733Y-24595967D01*
X105628304Y-24572632D01*
X105681686Y-24542737D01*
X105742448Y-24549929D01*
X105787377Y-24591462D01*
X105800000Y-24639835D01*
X105800000Y-28341812D01*
X105781093Y-28400003D01*
X105731593Y-28435967D01*
X105670407Y-28435967D01*
X105656056Y-28430022D01*
X105632248Y-28417891D01*
X105632242Y-28417889D01*
X105625304Y-28414354D01*
X105617610Y-28413135D01*
X105617609Y-28413135D01*
X105507697Y-28395727D01*
X105500000Y-28394508D01*
X105492303Y-28395727D01*
X105382391Y-28413135D01*
X105382390Y-28413135D01*
X105374696Y-28414354D01*
X105367757Y-28417890D01*
X105367756Y-28417890D01*
X105268597Y-28468414D01*
X105268595Y-28468415D01*
X105261658Y-28471950D01*
X105171950Y-28561658D01*
X105168415Y-28568595D01*
X105168414Y-28568597D01*
X105161386Y-28582391D01*
X105114354Y-28674696D01*
X105094508Y-28800000D01*
X105114354Y-28925304D01*
X105171950Y-29038342D01*
X105261658Y-29128050D01*
X105268595Y-29131585D01*
X105268597Y-29131586D01*
X105343946Y-29169978D01*
X105374696Y-29185646D01*
X105382390Y-29186865D01*
X105382391Y-29186865D01*
X105492303Y-29204273D01*
X105500000Y-29205492D01*
X105507697Y-29204273D01*
X105617609Y-29186865D01*
X105617610Y-29186865D01*
X105625304Y-29185646D01*
X105632242Y-29182111D01*
X105632248Y-29182109D01*
X105656056Y-29169978D01*
X105716488Y-29160407D01*
X105771004Y-29188185D01*
X105798781Y-29242702D01*
X105800000Y-29258188D01*
X105800000Y-31876150D01*
X105781093Y-31934341D01*
X105771004Y-31946154D01*
X105046153Y-32671004D01*
X104991636Y-32698781D01*
X104976149Y-32700000D01*
X100299000Y-32700000D01*
X100240809Y-32681093D01*
X100204845Y-32631593D01*
X100200000Y-32601000D01*
X100200000Y-28700000D01*
X100494508Y-28700000D01*
X100514354Y-28825304D01*
X100517890Y-28832243D01*
X100517890Y-28832244D01*
X100565307Y-28925304D01*
X100571950Y-28938342D01*
X100661658Y-29028050D01*
X100668595Y-29031585D01*
X100668597Y-29031586D01*
X100692663Y-29043848D01*
X100774696Y-29085646D01*
X100782390Y-29086865D01*
X100782391Y-29086865D01*
X100892303Y-29104273D01*
X100900000Y-29105492D01*
X100907697Y-29104273D01*
X101017609Y-29086865D01*
X101017610Y-29086865D01*
X101025304Y-29085646D01*
X101107337Y-29043848D01*
X101131403Y-29031586D01*
X101131405Y-29031585D01*
X101138342Y-29028050D01*
X101228050Y-28938342D01*
X101234694Y-28925304D01*
X101282110Y-28832244D01*
X101282110Y-28832243D01*
X101285646Y-28825304D01*
X101305492Y-28700000D01*
X101285646Y-28574696D01*
X101228050Y-28461658D01*
X101138342Y-28371950D01*
X101131405Y-28368415D01*
X101131403Y-28368414D01*
X101032244Y-28317890D01*
X101032243Y-28317890D01*
X101025304Y-28314354D01*
X101017610Y-28313135D01*
X101017609Y-28313135D01*
X100907697Y-28295727D01*
X100900000Y-28294508D01*
X100892303Y-28295727D01*
X100782391Y-28313135D01*
X100782390Y-28313135D01*
X100774696Y-28314354D01*
X100767757Y-28317890D01*
X100767756Y-28317890D01*
X100668597Y-28368414D01*
X100668595Y-28368415D01*
X100661658Y-28371950D01*
X100571950Y-28461658D01*
X100514354Y-28574696D01*
X100494508Y-28700000D01*
X100200000Y-28700000D01*
X100200000Y-24604291D01*
X100218907Y-24546100D01*
X100268407Y-24510136D01*
X100329593Y-24510136D01*
X100370462Y-24539830D01*
X100371950Y-24538342D01*
X100461658Y-24628050D01*
X100468595Y-24631585D01*
X100468597Y-24631586D01*
X100484787Y-24639835D01*
X100574696Y-24685646D01*
X100582390Y-24686865D01*
X100582391Y-24686865D01*
X100700000Y-24705492D01*
X100699648Y-24707713D01*
X100747251Y-24723180D01*
X100779676Y-24763401D01*
X100813605Y-24840510D01*
X100818140Y-24845906D01*
X100819281Y-24847738D01*
X100833980Y-24907132D01*
X100819451Y-24950054D01*
X100819596Y-24950122D01*
X100764754Y-25066932D01*
X100744901Y-25194440D01*
X100745816Y-25201437D01*
X100745816Y-25201438D01*
X100747082Y-25211120D01*
X100761633Y-25322394D01*
X100764471Y-25328845D01*
X100764472Y-25328847D01*
X100771458Y-25344724D01*
X100813605Y-25440510D01*
X100855122Y-25489900D01*
X100892100Y-25533892D01*
X100892103Y-25533894D01*
X100896639Y-25539291D01*
X101004060Y-25610796D01*
X101010788Y-25612898D01*
X101010790Y-25612899D01*
X101065646Y-25630037D01*
X101127233Y-25649278D01*
X101191744Y-25650461D01*
X101249202Y-25651514D01*
X101249204Y-25651514D01*
X101256255Y-25651643D01*
X101263058Y-25649788D01*
X101263060Y-25649788D01*
X101304828Y-25638400D01*
X101380755Y-25617700D01*
X101490724Y-25550179D01*
X101577322Y-25454507D01*
X101633588Y-25338375D01*
X101654997Y-25211120D01*
X101655133Y-25200000D01*
X101636839Y-25072259D01*
X101583428Y-24954788D01*
X101580994Y-24951963D01*
X101565954Y-24894229D01*
X101579105Y-24855371D01*
X101577322Y-24854507D01*
X101630512Y-24744724D01*
X101630512Y-24744723D01*
X101633588Y-24738375D01*
X101654997Y-24611120D01*
X101655133Y-24600000D01*
X101636839Y-24472259D01*
X101586439Y-24361410D01*
X101579566Y-24300613D01*
X101594488Y-24265073D01*
X101598088Y-24259736D01*
X101602821Y-24254507D01*
X101659087Y-24138375D01*
X101673299Y-24053898D01*
X101679862Y-24014891D01*
X101679862Y-24014886D01*
X101680496Y-24011120D01*
X101680632Y-24000000D01*
X101662338Y-23872259D01*
X101608927Y-23754788D01*
X101606493Y-23751963D01*
X101591453Y-23694229D01*
X101604604Y-23655371D01*
X101602821Y-23654507D01*
X101656011Y-23544724D01*
X101656011Y-23544723D01*
X101659087Y-23538375D01*
X101680496Y-23411120D01*
X101680632Y-23400000D01*
X101662338Y-23272259D01*
X101616730Y-23171950D01*
X101611848Y-23161212D01*
X101611847Y-23161211D01*
X101608927Y-23154788D01*
X101524692Y-23057028D01*
X101518775Y-23053193D01*
X101518773Y-23053191D01*
X101448312Y-23007522D01*
X101416405Y-22986841D01*
X101409649Y-22984821D01*
X101409648Y-22984820D01*
X101359713Y-22969886D01*
X101292772Y-22949866D01*
X101216143Y-22949398D01*
X101170781Y-22949121D01*
X101163730Y-22949078D01*
X101156953Y-22951015D01*
X101156952Y-22951015D01*
X101046434Y-22982601D01*
X101046432Y-22982602D01*
X101039654Y-22984539D01*
X100930518Y-23053399D01*
X100845095Y-23150122D01*
X100790253Y-23266932D01*
X100776020Y-23358347D01*
X100748386Y-23412937D01*
X100693943Y-23440857D01*
X100633486Y-23431444D01*
X100590108Y-23388293D01*
X100586379Y-23379324D01*
X100585646Y-23374696D01*
X100537010Y-23279243D01*
X100531586Y-23268597D01*
X100531585Y-23268595D01*
X100528050Y-23261658D01*
X100438342Y-23171950D01*
X100431405Y-23168415D01*
X100431403Y-23168414D01*
X100332244Y-23117890D01*
X100332243Y-23117890D01*
X100325304Y-23114354D01*
X100317611Y-23113135D01*
X100317609Y-23113135D01*
X100283513Y-23107735D01*
X100228997Y-23079958D01*
X100201219Y-23025441D01*
X100200000Y-23009954D01*
X100200000Y-20299000D01*
X100218907Y-20240809D01*
X100268407Y-20204845D01*
X100299000Y-20200000D01*
X104892877Y-20200000D01*
X104951068Y-20218907D01*
G37*
%TD.AperFunction*%
%TD*%
M02*
