%TF.GenerationSoftware,KiCad,Pcbnew,(6.0.2)*%
%TF.CreationDate,2023-07-25T20:57:52+03:00*%
%TF.ProjectId,Shield1,53686965-6c64-4312-9e6b-696361645f70,rev?*%
%TF.SameCoordinates,Original*%
%TF.FileFunction,Legend,Bot*%
%TF.FilePolarity,Positive*%
%FSLAX46Y46*%
G04 Gerber Fmt 4.6, Leading zero omitted, Abs format (unit mm)*
G04 Created by KiCad (PCBNEW (6.0.2)) date 2023-07-25 20:57:52*
%MOMM*%
%LPD*%
G01*
G04 APERTURE LIST*
%ADD10C,0.150000*%
G04 APERTURE END LIST*
D10*
X101000000Y-28300000D02*
X101300000Y-29100000D01*
X99300000Y-28300000D02*
X98800000Y-29200000D01*
X104500000Y-28300000D02*
X104500000Y-30400000D01*
X105785714Y-31752380D02*
X105785714Y-30752380D01*
X105404761Y-30752380D01*
X105309523Y-30800000D01*
X105261904Y-30847619D01*
X105214285Y-30942857D01*
X105214285Y-31085714D01*
X105261904Y-31180952D01*
X105309523Y-31228571D01*
X105404761Y-31276190D01*
X105785714Y-31276190D01*
X104261904Y-30800000D02*
X104357142Y-30752380D01*
X104500000Y-30752380D01*
X104642857Y-30800000D01*
X104738095Y-30895238D01*
X104785714Y-30990476D01*
X104833333Y-31180952D01*
X104833333Y-31323809D01*
X104785714Y-31514285D01*
X104738095Y-31609523D01*
X104642857Y-31704761D01*
X104500000Y-31752380D01*
X104404761Y-31752380D01*
X104261904Y-31704761D01*
X104214285Y-31657142D01*
X104214285Y-31323809D01*
X104404761Y-31323809D01*
X103785714Y-31752380D02*
X103785714Y-30752380D01*
X103214285Y-31752380D01*
X103214285Y-30752380D01*
X102738095Y-31752380D02*
X102738095Y-30752380D01*
X102500000Y-30752380D01*
X102357142Y-30800000D01*
X102261904Y-30895238D01*
X102214285Y-30990476D01*
X102166666Y-31180952D01*
X102166666Y-31323809D01*
X102214285Y-31514285D01*
X102261904Y-31609523D01*
X102357142Y-31704761D01*
X102500000Y-31752380D01*
X102738095Y-31752380D01*
X99109523Y-29352380D02*
X98776190Y-30352380D01*
X98442857Y-29352380D01*
X97585714Y-30352380D02*
X98157142Y-30352380D01*
X97871428Y-30352380D02*
X97871428Y-29352380D01*
X97966666Y-29495238D01*
X98061904Y-29590476D01*
X98157142Y-29638095D01*
X102309523Y-29352380D02*
X101976190Y-30352380D01*
X101642857Y-29352380D01*
X101357142Y-29447619D02*
X101309523Y-29400000D01*
X101214285Y-29352380D01*
X100976190Y-29352380D01*
X100880952Y-29400000D01*
X100833333Y-29447619D01*
X100785714Y-29542857D01*
X100785714Y-29638095D01*
X100833333Y-29780952D01*
X101404761Y-30352380D01*
X100785714Y-30352380D01*
%TO.C,*%
%TD*%
M02*
