%TF.GenerationSoftware,KiCad,Pcbnew,(6.0.2)*%
%TF.CreationDate,2022-10-21T03:28:24+03:00*%
%TF.ProjectId,Shield1,53686965-6c64-4312-9e6b-696361645f70,rev?*%
%TF.SameCoordinates,Original*%
%TF.FileFunction,Copper,L1,Top*%
%TF.FilePolarity,Positive*%
%FSLAX46Y46*%
G04 Gerber Fmt 4.6, Leading zero omitted, Abs format (unit mm)*
G04 Created by KiCad (PCBNEW (6.0.2)) date 2022-10-21 03:28:24*
%MOMM*%
%LPD*%
G01*
G04 APERTURE LIST*
G04 Aperture macros list*
%AMRoundRect*
0 Rectangle with rounded corners*
0 $1 Rounding radius*
0 $2 $3 $4 $5 $6 $7 $8 $9 X,Y pos of 4 corners*
0 Add a 4 corners polygon primitive as box body*
4,1,4,$2,$3,$4,$5,$6,$7,$8,$9,$2,$3,0*
0 Add four circle primitives for the rounded corners*
1,1,$1+$1,$2,$3*
1,1,$1+$1,$4,$5*
1,1,$1+$1,$6,$7*
1,1,$1+$1,$8,$9*
0 Add four rect primitives between the rounded corners*
20,1,$1+$1,$2,$3,$4,$5,0*
20,1,$1+$1,$4,$5,$6,$7,0*
20,1,$1+$1,$6,$7,$8,$9,0*
20,1,$1+$1,$8,$9,$2,$3,0*%
G04 Aperture macros list end*
%TA.AperFunction,SMDPad,CuDef*%
%ADD10RoundRect,0.112500X0.112500X1.087500X-0.112500X1.087500X-0.112500X-1.087500X0.112500X-1.087500X0*%
%TD*%
%TA.AperFunction,SMDPad,CuDef*%
%ADD11RoundRect,0.200000X0.200000X1.000000X-0.200000X1.000000X-0.200000X-1.000000X0.200000X-1.000000X0*%
%TD*%
%TA.AperFunction,ComponentPad*%
%ADD12C,0.800000*%
%TD*%
%TA.AperFunction,ConnectorPad*%
%ADD13RoundRect,0.112500X0.112500X1.087500X-0.112500X1.087500X-0.112500X-1.087500X0.112500X-1.087500X0*%
%TD*%
%TA.AperFunction,SMDPad,CuDef*%
%ADD14R,0.300000X2.000000*%
%TD*%
%TA.AperFunction,SMDPad,CuDef*%
%ADD15R,0.180000X1.600000*%
%TD*%
%TA.AperFunction,SMDPad,CuDef*%
%ADD16RoundRect,0.112500X-0.112500X-1.087500X0.112500X-1.087500X0.112500X1.087500X-0.112500X1.087500X0*%
%TD*%
%TA.AperFunction,SMDPad,CuDef*%
%ADD17RoundRect,0.125000X-0.125000X-1.075000X0.125000X-1.075000X0.125000X1.075000X-0.125000X1.075000X0*%
%TD*%
%TA.AperFunction,ViaPad*%
%ADD18C,0.400000*%
%TD*%
%TA.AperFunction,ViaPad*%
%ADD19C,0.500000*%
%TD*%
%TA.AperFunction,Conductor*%
%ADD20C,0.400000*%
%TD*%
%TA.AperFunction,Conductor*%
%ADD21C,0.200000*%
%TD*%
%TA.AperFunction,Conductor*%
%ADD22C,1.000000*%
%TD*%
%TA.AperFunction,Conductor*%
%ADD23C,0.112000*%
%TD*%
G04 APERTURE END LIST*
D10*
%TO.P,J6,1,Pin_1*%
%TO.N,D+*%
X100400000Y-26900000D03*
%TD*%
D11*
%TO.P,,1,Pin_1*%
%TO.N,GND3*%
X95700000Y-26900000D03*
%TD*%
D12*
%TO.P,J17,1,Pin_1*%
%TO.N,Earth*%
X105300000Y-20700000D03*
%TD*%
D13*
%TO.P,J5,1,Pin_1*%
%TO.N,D-*%
X99600000Y-26900000D03*
%TD*%
D14*
%TO.P,X1,0*%
%TO.N,Earth*%
X104250000Y-21060000D03*
D15*
%TO.P,X1,B1,GND*%
%TO.N,GND2*%
X102750000Y-20860000D03*
%TO.P,X1,B2,TX2+*%
%TO.N,TX2+*%
X102250000Y-20860000D03*
%TO.P,X1,B3,TX2-*%
%TO.N,TX2-*%
X101750000Y-20860000D03*
%TO.P,X1,B4,VBUS*%
%TO.N,VBUS2*%
X101250000Y-20860000D03*
%TO.P,X1,B5,CC2*%
%TO.N,RX*%
X100750000Y-20860000D03*
%TO.P,X1,B6,D+*%
%TO.N,D+*%
X100250000Y-20860000D03*
%TO.P,X1,B7,D-*%
%TO.N,D-*%
X99750000Y-20860000D03*
%TO.P,X1,B8,SBU2*%
%TO.N,TX*%
X99250000Y-20860000D03*
%TO.P,X1,B9,VBUS*%
%TO.N,VBUS1*%
X98750000Y-20860000D03*
%TO.P,X1,B10,RX1-*%
%TO.N,RX1-*%
X98250000Y-20860000D03*
%TO.P,X1,B11,RX1+*%
%TO.N,RX1+*%
X97750000Y-20860000D03*
%TO.P,X1,B12,GND*%
%TO.N,GND3*%
X97250000Y-20860000D03*
D14*
%TO.P,X1,S1,SHIELD*%
%TO.N,Earth*%
X95750000Y-21060000D03*
%TD*%
D10*
%TO.P,J26,1,Pin_1*%
%TO.N,GND1*%
X96650000Y-26900000D03*
%TD*%
D16*
%TO.P,J15,1,Pin_1*%
%TO.N,TX*%
X94500000Y-26900000D03*
%TD*%
D10*
%TO.P,J13,1,Pin_1*%
%TO.N,TX2-*%
X101550000Y-26900000D03*
%TD*%
%TO.P,J8,1,Pin_1*%
%TO.N,RX1+*%
X97550000Y-26900000D03*
%TD*%
%TO.P,J14,1,Pin_1*%
%TO.N,TX2+*%
X102450000Y-26900000D03*
%TD*%
%TO.P,J28,1,Pin_1*%
%TO.N,GND2*%
X103350000Y-26900000D03*
%TD*%
D17*
%TO.P,J3,1,Pin_1*%
%TO.N,RX*%
X105500000Y-26900000D03*
%TD*%
D12*
%TO.P,J25,1,Pin_1*%
%TO.N,Earth*%
X94700000Y-20700000D03*
%TD*%
D10*
%TO.P,J7,1,Pin_1*%
%TO.N,RX1-*%
X98450000Y-26900000D03*
%TD*%
D18*
%TO.N,GND1*%
X97250000Y-24200000D03*
X97250000Y-23600000D03*
X97250000Y-23600000D03*
X97250000Y-23000000D03*
%TO.N,GND2*%
X102750000Y-23550000D03*
X102750000Y-22950000D03*
X102750000Y-24150000D03*
D19*
%TO.N,VBUS1*%
X98800000Y-22000000D03*
X98800000Y-24800000D03*
X98882155Y-25282155D03*
%TO.N,VBUS2*%
X101200000Y-25200000D03*
X101200000Y-24600000D03*
X101225499Y-24000000D03*
X101225499Y-23400000D03*
D18*
%TO.N,D-*%
X99800000Y-23100000D03*
%TO.N,D+*%
X100200000Y-23500000D03*
%TO.N,RX*%
X105500000Y-28800000D03*
X100700000Y-24300000D03*
X100900000Y-28700000D03*
%TO.N,TX*%
X94500000Y-28700000D03*
X99400000Y-24000000D03*
X99100000Y-28600000D03*
%TD*%
D20*
%TO.N,GND1*%
X96650000Y-25650000D02*
X96650000Y-26900000D01*
X97250000Y-24200000D02*
X97250000Y-25050000D01*
X97250000Y-25050000D02*
X96650000Y-25650000D01*
X97250000Y-24200000D02*
X97250000Y-23000000D01*
D21*
%TO.N,GND2*%
X102750000Y-22050000D02*
X102750000Y-20860000D01*
D20*
X102750000Y-24150000D02*
X102750000Y-24933658D01*
X102750000Y-24150000D02*
X102750000Y-23550000D01*
X102750000Y-23550000D02*
X102750000Y-22950000D01*
X102750000Y-22950000D02*
X102750000Y-22000000D01*
D21*
X102700000Y-22100000D02*
X102750000Y-22050000D01*
D20*
X103350000Y-25533658D02*
X103350000Y-26900000D01*
X102750000Y-24933658D02*
X103350000Y-25533658D01*
D22*
%TO.N,Earth*%
X105300000Y-20700000D02*
X104610000Y-20700000D01*
X104610000Y-20700000D02*
X104250000Y-21060000D01*
X95390000Y-20700000D02*
X95750000Y-21060000D01*
X94700000Y-20700000D02*
X95390000Y-20700000D01*
D20*
%TO.N,VBUS1*%
X98800000Y-24800000D02*
X98800000Y-25200000D01*
D21*
X98750000Y-20860000D02*
X98750000Y-22000000D01*
D20*
X98800000Y-25200000D02*
X98882155Y-25282155D01*
X98800000Y-24800000D02*
X98800000Y-22000000D01*
%TO.N,VBUS2*%
X101200000Y-24600000D02*
X101200000Y-25200000D01*
X101225499Y-24574501D02*
X101200000Y-24600000D01*
D21*
X101250000Y-21975499D02*
X101225499Y-22000000D01*
D20*
X101225499Y-24000000D02*
X101225499Y-24574501D01*
X101225499Y-23400000D02*
X101225499Y-22000000D01*
D21*
X101250000Y-20860000D02*
X101250000Y-21975499D01*
D20*
X101225499Y-24000000D02*
X101225499Y-23400000D01*
D21*
%TO.N,D-*%
X99800000Y-25500000D02*
X99800000Y-25650000D01*
X99800000Y-25650000D02*
X99600000Y-25850000D01*
X99600000Y-25850000D02*
X99600000Y-26900000D01*
X99800480Y-25499520D02*
X99800000Y-25500000D01*
X99750000Y-20860000D02*
X99800480Y-20910480D01*
X99800480Y-20910480D02*
X99800480Y-25499520D01*
%TO.N,D+*%
X100200000Y-20910000D02*
X100200000Y-25650000D01*
X100400000Y-25850000D02*
X100400000Y-26900000D01*
X100250000Y-20860000D02*
X100200000Y-20910000D01*
X100200000Y-25650000D02*
X100400000Y-25850000D01*
%TO.N,RX*%
X105500000Y-28800000D02*
X105500000Y-26900000D01*
X100750000Y-20860000D02*
X100650489Y-20959511D01*
X100900000Y-25700000D02*
X100900000Y-28700000D01*
X100650489Y-25450489D02*
X100900000Y-25700000D01*
X100650489Y-20959511D02*
X100650489Y-25450489D01*
D23*
%TO.N,RX1-*%
X98450000Y-25900000D02*
X98450000Y-26900000D01*
X98250000Y-21570000D02*
X98119500Y-21700500D01*
X98119500Y-21700500D02*
X98119500Y-25569500D01*
X98250000Y-20860000D02*
X98250000Y-21570000D01*
X98119500Y-25569500D02*
X98450000Y-25900000D01*
%TO.N,RX1+*%
X97550000Y-25900000D02*
X97550000Y-26900000D01*
X97880500Y-21700500D02*
X97880500Y-25569500D01*
X97750000Y-21570000D02*
X97880500Y-21700500D01*
X97750000Y-20860000D02*
X97750000Y-21570000D01*
X97880500Y-25569500D02*
X97550000Y-25900000D01*
%TO.N,TX2-*%
X101750000Y-21570000D02*
X101880500Y-21700500D01*
X101550000Y-25900000D02*
X101550000Y-26900000D01*
X101880500Y-21700500D02*
X101880500Y-25569500D01*
X101750000Y-20860000D02*
X101750000Y-21570000D01*
X101880500Y-25569500D02*
X101550000Y-25900000D01*
%TO.N,TX2+*%
X102450000Y-25900000D02*
X102450000Y-26900000D01*
X102250000Y-20860000D02*
X102250000Y-21570000D01*
X102119500Y-25569500D02*
X102450000Y-25900000D01*
X102119500Y-21700500D02*
X102119500Y-25569500D01*
X102250000Y-21570000D02*
X102119500Y-21700500D01*
D21*
%TO.N,TX*%
X94500000Y-28700000D02*
X94500000Y-26900000D01*
X99100000Y-25700000D02*
X99100000Y-28600000D01*
X99349511Y-25450489D02*
X99100000Y-25700000D01*
X99349511Y-20959511D02*
X99349511Y-25450489D01*
X99250000Y-20860000D02*
X99349511Y-20959511D01*
%TO.N,GND3*%
X97200000Y-22000000D02*
X97250000Y-21950000D01*
D20*
X96599521Y-22600479D02*
X96599521Y-24800479D01*
X97200000Y-22000000D02*
X96599521Y-22600479D01*
X95700000Y-25700000D02*
X95700000Y-26900000D01*
D21*
X97250000Y-21950000D02*
X97250000Y-20860000D01*
D20*
X96599521Y-24800479D02*
X95700000Y-25700000D01*
%TD*%
M02*
